<svg width="225" height="72" viewBox="0 0 225 72" fill="none" xmlns="http://www.w3.org/2000/svg">
<g clip-path="url(#clip0_1669_1731)">
<rect width="225" height="71.3542" fill="white"/>
<path d="M76.5003 17.8818C76.0396 17.8818 75.6648 17.899 75.4902 17.9362C74.5031 18.1422 73.4501 18.9176 72.8263 19.9019C72.1339 21.1351 71.9937 23.2182 72.6661 24.3627C73.0781 25.0437 73.3213 25.2897 76.8236 28.5316C79.0439 30.5889 79.3987 31.1268 79.3987 32.4401C79.3987 34.2914 77.8594 35.7707 75.9337 35.7707C73.9623 35.7678 72.6461 34.5947 72.4887 32.6976C72.4315 32.0281 72.3199 31.659 72.1854 31.7048C71.905 31.7992 71.7333 32.6204 71.7047 33.9995C71.6847 34.9552 71.7448 35.1583 72.1682 35.5332C72.4372 35.7707 73.1039 36.114 73.6533 36.2971C74.38 36.5432 75.1182 36.6176 76.3772 36.5747C77.8565 36.526 78.217 36.4459 78.898 36.011C80.6835 34.8722 81.4703 32.6347 80.8666 30.4029C80.6577 29.636 79.1355 27.9937 75.6905 24.8376C74.0968 23.3755 73.7792 22.8834 73.7649 21.8447C73.7505 20.7689 73.988 20.188 74.7406 19.4727C75.9881 18.5342 78.0482 18.7059 78.8837 19.6129C79.2442 20.0078 79.5418 20.4971 79.5418 20.7031C79.5418 20.9091 79.6276 21.1323 79.7335 21.1981C79.8566 21.2725 79.9252 20.7288 79.9252 19.6959V18.374C79.971 17.9877 79.805 18.0678 79.4646 18.0421L78.0282 17.9391C77.5074 17.9019 76.9609 17.8818 76.5003 17.8818ZM150.296 20.4828L149.672 20.6201C149.329 20.6945 146.957 20.7975 144.399 20.849C141.635 20.9034 139.789 21.0121 139.855 21.118C139.915 21.2152 140.153 21.2954 140.384 21.3011C140.616 21.304 140.977 21.4384 141.188 21.5987C141.555 21.8762 141.575 22.1452 141.626 28.3628C141.681 34.6433 141.669 34.855 141.289 35.3386C141.074 35.6133 140.636 35.8966 140.321 35.9652C140.007 36.0339 139.784 36.1512 139.829 36.2256C139.875 36.3 142.227 36.3486 145.057 36.3372L150.202 36.3143L150.473 35.7564C150.754 35.187 151.398 33.5503 151.581 32.9437C151.732 32.443 151.346 32.5403 151.109 33.0639C150.699 33.9623 149.709 34.8779 148.82 35.1812C148.204 35.3901 147.226 35.4845 145.664 35.4845H143.397V32.3428C143.397 28.6804 143.177 28.9722 145.927 28.9665C147.993 28.9636 148.499 29.1382 148.668 29.9107C148.903 30.9837 149.149 30.3056 149.149 28.5802C149.149 26.8749 148.92 26.2053 148.674 27.1896C148.433 28.151 148.304 28.1968 145.769 28.1968H143.397V21.6759L146.244 21.7246C149.337 21.7761 149.609 21.8619 149.824 22.8405C150.053 23.882 150.299 23.4127 150.299 21.942V20.4828H150.296ZM101.745 20.5056C101.602 20.5142 101.657 20.7717 101.74 21.1494C101.814 21.4928 101.877 24.7489 101.877 28.3885C101.88 35.6963 101.869 35.7621 100.727 35.9767C100.361 36.0453 100.109 36.177 100.163 36.2714C100.301 36.4946 104.819 36.4574 104.956 36.2313C105.013 36.1369 104.839 36.0597 104.561 36.0597C104.283 36.0597 103.851 35.8479 103.591 35.5904L103.122 35.1183V29.7247C103.122 26.6803 103.196 24.3598 103.291 24.3941C103.382 24.4285 104.827 25.7618 106.501 27.3556C108.175 28.9493 110.017 30.689 110.598 31.2212C111.176 31.7534 112.687 33.184 113.955 34.403C115.219 35.6219 116.341 36.6205 116.447 36.6262C116.573 36.6319 116.618 34.1025 116.584 29.3013C116.527 21.9964 116.53 21.9649 116.942 21.6301C117.168 21.447 117.56 21.2954 117.812 21.2954C118.063 21.2954 118.269 21.2095 118.269 21.1037C118.269 20.9863 117.342 20.9119 115.872 20.9119C114.401 20.9119 113.474 20.9863 113.474 21.1037C113.474 21.2095 113.674 21.2954 113.917 21.2954C114.161 21.2954 114.55 21.4699 114.782 21.6874C115.194 22.0708 115.202 22.1709 115.202 27.4758V32.875L114.484 32.2141C113.211 31.0409 110.776 28.7548 107.245 25.407C103.313 21.6731 102.06 20.4885 101.745 20.5056ZM90.4376 20.9005C90.2431 21.5643 89.2788 23.7361 87.4104 27.719C86.9669 28.6689 86.0799 30.566 85.4418 31.9365C84.0598 34.9065 83.5991 35.5704 82.7093 35.8937C82.3402 36.0253 82.0397 36.2056 82.0397 36.2886C82.0397 36.5031 86.7866 36.4803 86.9211 36.2628C86.9812 36.1655 86.8353 36.0225 86.5949 35.9481C85.7422 35.682 85.6736 35.104 86.3145 33.5646C86.5548 32.9838 86.9039 32.2284 87.087 31.8822L87.4218 31.2527L90.5979 31.3042L93.7739 31.3557L94.5207 33.1526C94.9327 34.1397 95.2675 35.0725 95.2675 35.2241C95.2675 35.3758 95.0071 35.6448 94.6924 35.825C94.3748 36.0053 94.1173 36.217 94.1173 36.2943C94.1173 36.3744 95.2818 36.4373 96.7039 36.4373C99.2447 36.4373 99.837 36.28 98.7411 35.8994C97.6738 35.5275 97.6366 35.4674 94.8755 29.3442C92.3633 23.7704 91.4334 21.7303 91.0213 20.9863C90.8382 20.5743 90.5607 20.4484 90.4376 20.9005ZM157.498 20.9005C155.458 20.8805 153.555 20.9434 153.555 21.1037C153.555 21.2095 153.81 21.2954 154.119 21.2954C155.255 21.2954 155.28 21.4556 155.28 28.6346V35.1183L154.808 35.5904C154.551 35.8508 154.162 36.0597 153.944 36.0597C153.73 36.0597 153.552 36.1398 153.552 36.2371C153.552 36.4831 158.671 36.4974 158.825 36.2542C158.891 36.1483 158.814 36.0597 158.654 36.0597C158.113 36.0597 157.429 35.6362 157.217 35.1669C157.074 34.855 157.006 32.5832 157.006 28.2998C157.006 22.5229 157.037 21.8934 157.32 21.8361C157.492 21.8018 158.474 21.819 159.498 21.8733C161.063 21.9563 161.469 22.0479 162.047 22.4456C163.14 23.1953 163.529 24.4771 163.146 26.0737C162.748 27.7333 161.941 28.2798 159.592 28.4915C158.751 28.5659 158.036 28.6518 158.001 28.6804C157.967 28.7118 158.313 28.9264 158.768 29.1553C159.578 29.5674 160.785 30.8664 161.853 32.4716C162.854 33.9766 164.262 35.4273 165.115 35.8279C166.016 36.2514 168.405 36.5804 168.574 36.3057C168.631 36.217 168.253 35.991 167.738 35.8107C167.017 35.5561 166.517 35.1583 165.561 34.0939C164.877 33.3328 164.039 32.3228 163.698 31.8507C162.9 30.7491 162.777 30.5974 162.099 29.9308L161.535 29.3757L162.099 29.2383C163.856 28.812 165.252 26.9521 165.252 25.0351C165.252 23.138 164.185 21.7646 162.259 21.1838C161.713 21.0178 159.538 20.9205 157.498 20.9005ZM123.669 20.932C121.546 20.932 120.579 20.9806 120.579 21.0893C120.579 21.2009 120.793 21.2925 121.059 21.2925C121.322 21.2925 121.712 21.467 121.923 21.6759C122.29 22.045 122.307 22.314 122.307 28.5373C122.307 35.6591 122.298 35.7049 121.151 35.9338C120.825 35.9996 120.599 36.1226 120.653 36.2084C120.704 36.2943 123.062 36.3544 125.889 36.3401C130.582 36.3143 131.14 36.2771 132.284 35.9023C135.623 34.8093 137.24 32.6776 137.412 29.1439C137.595 25.3269 136.061 22.7231 132.874 21.447C131.861 21.0407 131.471 21.0121 126.19 20.9491C125.214 20.9377 124.375 20.932 123.669 20.932ZM125.943 21.6874C126.361 21.6902 126.873 21.7045 127.506 21.7217C130.132 21.7961 130.819 21.8791 131.72 22.2281C134.307 23.2296 135.732 25.9593 135.469 29.3986C135.271 31.9566 134.144 33.762 132.124 34.7578C130.851 35.3844 130.833 35.3872 127.557 35.4473C124.65 35.4988 124.258 35.4702 124.149 35.1927C123.963 34.7063 124.012 22.1938 124.201 21.8962C124.298 21.736 124.69 21.6759 125.943 21.6874ZM90.7867 24.0451C91.1873 24.9578 92.6666 28.5688 93.173 29.8735L93.3418 30.3056H87.7938L88.1457 29.3957C89.2502 26.5401 90.1114 24.5773 90.4949 23.9993C90.6723 23.7332 90.6951 23.8391 90.7867 24.0451Z" fill="#3DD7BF"/>
<path d="M76.5003 17.8818C76.0396 17.8818 75.6648 17.899 75.4902 17.9362C74.5031 18.1394 73.4501 18.9176 72.8263 19.9019C72.1339 21.1351 71.9937 23.2182 72.6661 24.3627C73.0781 25.0437 73.3213 25.2897 76.8236 28.5316C79.0439 30.5889 79.3987 31.1268 79.3987 32.4401C79.3987 34.2914 77.8594 35.7735 75.9337 35.7707C73.9623 35.7678 72.6461 34.5947 72.4887 32.6976C72.4315 32.0281 72.3199 31.659 72.1854 31.7048C71.905 31.7992 71.7333 32.6204 71.7047 33.9995C71.6847 34.9552 71.7448 35.1583 72.1682 35.5332C72.4372 35.7707 73.1039 36.114 73.6533 36.2971C74.38 36.5403 75.1182 36.6176 76.3772 36.5747C77.8565 36.526 78.217 36.4459 78.898 36.011C80.6835 34.8722 81.4703 32.6347 80.8666 30.4029C80.6577 29.636 79.1355 27.9965 75.6905 24.8376C74.0968 23.3755 73.7792 22.8834 73.7649 21.8447C73.7505 20.7689 73.988 20.188 74.7406 19.4727C75.9881 18.5342 78.0482 18.7059 78.8837 19.6129C79.2442 20.0078 79.5418 20.4971 79.5418 20.7031C79.5418 20.9091 79.6276 21.1323 79.7335 21.1981C79.8566 21.2725 79.9252 20.7288 79.9252 19.6959V18.374C79.971 17.9877 79.805 18.0678 79.4646 18.0421L78.0282 17.9391C77.5074 17.9019 76.9609 17.8818 76.5003 17.8818ZM150.296 20.4828L149.672 20.6201C149.329 20.6945 146.957 20.7975 144.399 20.849C141.635 20.9034 139.789 21.0121 139.855 21.118C139.915 21.2152 140.153 21.2954 140.384 21.3011C140.616 21.304 140.977 21.4384 141.188 21.5987C141.555 21.8762 141.575 22.1452 141.626 28.3628C141.681 34.6433 141.669 34.855 141.289 35.3386C141.074 35.6133 140.636 35.8966 140.321 35.9652C140.007 36.0339 139.784 36.1512 139.829 36.2256C139.875 36.3 142.227 36.3486 145.057 36.3372L150.202 36.3143L150.473 35.7564C150.754 35.187 151.398 33.5503 151.581 32.9437C151.732 32.443 151.346 32.5403 151.109 33.0639C150.699 33.9623 149.709 34.8779 148.82 35.1812C148.204 35.3901 147.226 35.4845 145.664 35.4845H143.397V32.3428C143.397 28.6804 143.177 28.9722 145.927 28.9665C147.993 28.9636 148.499 29.1382 148.668 29.9107C148.903 30.9837 149.149 30.3056 149.149 28.5802C149.149 26.8749 148.92 26.2053 148.674 27.1896C148.433 28.151 148.304 28.1968 145.769 28.1968H143.397V21.6759L146.244 21.7246C149.337 21.7761 149.609 21.8619 149.824 22.8405C150.053 23.882 150.299 23.4127 150.299 21.942V20.4828H150.296ZM101.745 20.5085C101.602 20.5171 101.657 20.7746 101.74 21.1523C101.814 21.4957 101.877 24.7518 101.877 28.3914C101.88 35.6991 101.869 35.7649 100.727 35.9795C100.361 36.0482 100.109 36.1798 100.163 36.2742C100.301 36.4974 104.819 36.4574 104.956 36.2342C105.013 36.1398 104.839 36.0625 104.561 36.0625C104.283 36.0625 103.851 35.8508 103.591 35.5933L103.122 35.124V29.7305C103.122 26.686 103.196 24.3655 103.291 24.4027C103.382 24.4371 104.827 25.7704 106.501 27.3642C108.175 28.9579 110.017 30.6976 110.598 31.2298C111.176 31.762 112.687 33.1926 113.955 34.4115C115.219 35.6305 116.341 36.6291 116.447 36.6348C116.573 36.6405 116.618 34.1111 116.584 29.307C116.527 22.0021 116.53 21.9706 116.942 21.6387C117.168 21.4556 117.56 21.3039 117.812 21.3039C118.063 21.3039 118.269 21.2181 118.269 21.1122C118.269 20.9949 117.342 20.9205 115.872 20.9205C114.401 20.9205 113.474 20.9949 113.474 21.1122C113.474 21.2181 113.674 21.3039 113.917 21.3039C114.161 21.3039 114.55 21.4785 114.782 21.6959C115.194 22.0794 115.202 22.1795 115.202 27.4843V32.8836L114.484 32.2227C113.211 31.0495 110.776 28.7633 107.245 25.4156C103.313 21.6731 102.06 20.4885 101.745 20.5085ZM90.4376 20.9005C90.2431 21.5643 89.2788 23.7361 87.4104 27.719C86.9669 28.6689 86.0799 30.566 85.4418 31.9365C84.0598 34.9037 83.5991 35.5704 82.7093 35.8937C82.3402 36.0253 82.0397 36.2056 82.0397 36.2886C82.0397 36.5031 86.7866 36.4803 86.9211 36.2628C86.9812 36.1655 86.8353 36.0225 86.5949 35.9481C85.7422 35.682 85.6736 35.1068 86.3145 33.5646C86.5548 32.9838 86.9039 32.2284 87.087 31.8822L87.4218 31.2527L90.5979 31.3042L93.7739 31.3557L94.5207 33.1526C94.9327 34.1397 95.2675 35.0725 95.2675 35.2213C95.2675 35.3729 95.0071 35.6419 94.6924 35.8222C94.3748 35.9996 94.1173 36.2142 94.1173 36.2914C94.1173 36.3715 95.2818 36.4345 96.7039 36.4345C99.2447 36.4345 99.837 36.2771 98.7411 35.8966C97.6738 35.5246 97.6366 35.4645 94.8755 29.3413C92.3633 23.7675 91.4334 21.7274 91.0213 20.9835C90.8382 20.5743 90.5607 20.4484 90.4376 20.9005ZM157.498 20.9005C155.458 20.8805 153.555 20.9434 153.555 21.1037C153.555 21.2095 153.81 21.2954 154.119 21.2954C155.255 21.2954 155.28 21.4527 155.28 28.6317V35.1154L154.808 35.5847C154.551 35.8451 154.162 36.0539 153.944 36.0539C153.73 36.0539 153.552 36.134 153.552 36.2313C153.552 36.4774 158.671 36.4917 158.825 36.2456C158.891 36.1398 158.814 36.0511 158.654 36.0511C158.113 36.0511 157.429 35.6276 157.217 35.1583C157.074 34.8465 157.006 32.5717 157.006 28.2912C157.006 22.5114 157.037 21.8848 157.32 21.8276C157.492 21.7932 158.474 21.8104 159.498 21.8648C161.063 21.9477 161.469 22.0393 162.047 22.437C163.14 23.1867 163.529 24.4685 163.146 26.0651C162.748 27.7276 161.941 28.2741 159.592 28.4829C158.751 28.5573 158.036 28.6432 158.001 28.6718C157.967 28.7004 158.313 28.915 158.768 29.1468C159.578 29.5588 160.785 30.8578 161.853 32.463C162.854 33.968 164.262 35.4187 165.115 35.8193C166.016 36.2428 168.405 36.5718 168.574 36.2943C168.631 36.2056 168.253 35.9795 167.738 35.7993C167.017 35.5418 166.517 35.1469 165.561 34.0825C164.877 33.3214 164.039 32.3114 163.698 31.8392C162.9 30.7348 162.777 30.586 162.099 29.9193L161.535 29.3642L162.099 29.2269C163.856 28.8005 165.252 26.9407 165.252 25.0236C165.252 23.1266 164.185 21.7532 162.259 21.1723C161.713 21.0178 159.538 20.9205 157.498 20.9005ZM123.669 20.932C121.546 20.932 120.579 20.9835 120.579 21.0893C120.579 21.2038 120.793 21.2954 121.059 21.2954C121.322 21.2954 121.712 21.4699 121.923 21.6788C122.29 22.0479 122.307 22.3168 122.307 28.5402C122.307 35.6619 122.298 35.7077 121.151 35.9366C120.825 36.0024 120.599 36.1255 120.653 36.2113C120.704 36.2971 123.062 36.3572 125.889 36.3429C130.582 36.3172 131.14 36.28 132.284 35.9051C135.623 34.8121 137.24 32.6805 137.412 29.1468C137.595 25.3298 136.061 22.726 132.874 21.4499C131.861 21.0436 131.471 21.015 126.19 20.9549C125.214 20.9377 124.375 20.932 123.669 20.932ZM125.943 21.6874C126.361 21.6902 126.873 21.7017 127.506 21.7217C130.132 21.7961 130.819 21.8791 131.72 22.2281C134.307 23.2296 135.732 25.9593 135.469 29.3986C135.271 31.9566 134.144 33.762 132.124 34.7578C130.851 35.3844 130.833 35.3872 127.557 35.4473C124.65 35.4988 124.258 35.4702 124.149 35.1927C123.963 34.7063 124.012 22.1938 124.201 21.8962C124.298 21.736 124.69 21.6788 125.943 21.6874ZM90.7867 24.0451C91.1873 24.9578 92.6666 28.5688 93.173 29.8735L93.3418 30.3056H87.7938L88.1457 29.3957C89.2502 26.5401 90.1114 24.5773 90.4949 23.9993C90.6723 23.7332 90.6951 23.8391 90.7867 24.0451Z" stroke="#31D4BB" stroke-width="0.119574"/>
<mask id="mask0_1669_1731" style="mask-type:luminance" maskUnits="userSpaceOnUse" x="71" y="-73" width="145" height="130">
<path d="M215.911 -72.0488H71.7014V56.4234H215.911V-72.0488Z" fill="white"/>
</mask>
<g mask="url(#mask0_1669_1731)">
<path d="M76.434 46.7067C76.2308 47.133 75.607 48.5865 74.8917 50.3205C72.9289 55.0702 72.7686 55.3907 72.1821 55.6854C71.75 55.9029 71.8359 55.9258 73.0261 55.9286C74.3252 55.9315 74.3452 55.9258 74.0104 55.5567C73.6871 55.199 73.6928 55.1332 74.1335 53.9744L74.5941 52.7669H78.0077L78.4683 53.9744C78.9118 55.1332 78.9176 55.199 78.5914 55.5567C78.2595 55.9258 78.2766 55.9315 79.6272 55.9315H80.7402C80.9291 55.9143 81.0664 55.9916 80.8833 55.8199L80.4398 55.405C80.0363 55.0245 79.4126 53.7226 78.2137 50.7554C77.4898 48.9642 76.8546 47.4163 76.6085 46.8297C76.5284 46.6437 76.5255 46.5121 76.434 46.7067ZM107.144 47.8769C105.831 47.917 104.964 48.6237 104.973 49.7568C104.978 50.6209 105.247 50.9614 107.03 52.3606C108.254 53.322 108.418 53.528 108.418 54.086C108.418 54.8528 107.943 55.3335 107.053 55.468C106.177 55.5996 105.159 54.973 105.159 54.3034C105.159 54.0373 105.073 53.8199 104.967 53.8199C104.689 53.8199 104.729 55.2705 105.015 55.5023C105.147 55.611 105.427 55.7398 105.636 55.7913C106.995 55.9572 108.921 55.9687 109.264 54.5695C109.505 52.9958 108.509 52.3148 107.41 51.4335C105.937 50.249 105.734 50.0115 105.734 49.4735C105.731 48.7411 106.303 48.2604 107.164 48.2689C107.785 48.2747 108.415 48.6466 108.415 49.0043C108.415 49.1245 108.501 49.2217 108.606 49.2217C108.712 49.2217 108.798 48.9671 108.798 48.6552C108.798 48.1574 108.715 48.0744 108.114 47.9599C107.774 47.8941 107.448 47.8684 107.144 47.8769ZM198.222 47.8769C195.959 47.8769 194.508 49.1788 194.351 51.3506C194.193 53.5137 195.046 55.0445 196.737 55.6482C199.144 56.5066 201.799 55.4079 202.085 53.4364L202.211 52.5752L201.702 53.5738C201.015 54.9243 200.156 55.4479 198.631 55.4479C196.511 55.4479 195.275 54.1518 195.275 51.9285C195.275 49.1159 197.201 47.6709 199.879 48.475C200.403 48.6323 200.74 48.9156 201.126 49.5279C201.418 49.9914 201.69 50.3691 201.727 50.3691C201.885 50.3691 201.538 48.7239 201.338 48.5236C201.012 48.2003 199.458 47.8769 198.222 47.8769ZM213.647 47.8798C212.114 47.8769 211.144 49.0644 211.604 50.3834C211.71 50.6867 212.423 51.4078 213.296 52.0945C214.125 52.7469 214.852 53.4078 214.912 53.5652C215.318 54.6267 214.657 55.4508 213.393 55.4508C212.494 55.4508 211.762 54.9701 211.762 54.3778C211.762 54.189 211.676 53.9829 211.57 53.9171C211.453 53.8456 211.378 54.1289 211.378 54.6439C211.378 55.4279 211.424 55.5052 212.002 55.6997C212.346 55.817 213.081 55.8857 213.636 55.8542C215.001 55.7798 215.788 55.0731 215.788 53.9229C215.788 52.9128 215.516 52.5466 213.859 51.3191C213.11 50.764 212.417 50.1002 212.32 49.8455C212.117 49.3105 212.351 48.7496 212.904 48.4549C213.67 48.0429 215.021 48.3519 215.021 48.9356C215.021 49.0901 215.107 49.216 215.213 49.216C215.318 49.216 215.404 48.9671 215.404 48.6638C215.407 48.0315 215.078 47.8855 213.647 47.8798ZM156.67 47.8941C156.587 47.897 156.476 47.9199 156.327 47.9485C155.998 48.0143 154.811 48.0744 153.692 48.0801C152.275 48.0887 151.786 48.1459 152.087 48.2661C152.51 48.4378 152.519 48.495 152.519 51.7912C152.519 55.0359 152.504 55.1532 152.092 55.4393C151.698 55.7169 151.852 55.7369 154.195 55.7369C156.61 55.7369 156.739 55.7169 156.999 55.3049C157.148 55.0674 157.334 54.6582 157.412 54.395C157.537 53.9658 157.48 53.9887 156.848 54.6353C156.167 55.3306 156.098 55.3535 154.811 55.3535H153.477V52.0945H154.633C155.483 52.0945 155.818 52.1717 155.901 52.3806C156.07 52.8213 156.353 52.5208 156.353 51.9028C156.353 51.2847 156.07 50.9843 155.901 51.4249C155.818 51.6367 155.483 51.7111 154.633 51.7111H153.477V48.4492H154.894C156.144 48.4492 156.344 48.5007 156.61 48.8813C156.908 49.3076 156.911 49.3019 156.922 48.5694C156.925 48.0229 156.922 47.8827 156.67 47.8941ZM94.7405 47.8941C94.6576 47.8998 94.546 47.9199 94.3972 47.9513C94.0681 48.0171 92.9265 48.0715 91.8621 48.0715C90.028 48.0715 89.9479 48.0858 90.3656 48.3805C90.8005 48.6867 90.8062 48.7325 90.7433 51.92C90.6861 54.8843 90.6489 55.1761 90.2969 55.4393C89.9479 55.7026 90.1482 55.7283 92.4601 55.7341C95.2727 55.7398 95.0352 55.8457 95.473 54.3978L95.6189 53.9171L95.2184 54.4179C94.6633 55.1132 93.8907 55.385 92.6775 55.3163L91.6417 55.2591V52.1918L92.8406 52.1346C93.8192 52.0888 94.0395 52.1317 94.0395 52.3749C94.0395 52.538 94.1254 52.6725 94.2312 52.6725C94.3371 52.6725 94.4229 52.3263 94.4229 51.9056C94.4229 51.4822 94.3371 51.1388 94.2312 51.1388C94.1254 51.1388 94.0395 51.2676 94.0395 51.4249C94.0395 51.651 93.7734 51.7111 92.7948 51.7111H91.5502V48.4521H92.978C94.2341 48.4521 94.4401 48.5036 94.7033 48.8784C94.9952 49.2961 95.0009 49.2904 95.0009 48.5665C94.9952 48.0257 94.9895 47.8827 94.7405 47.8941ZM118.197 47.9742L118.212 48.6438C118.223 49.2675 118.24 49.2847 118.432 48.8841C118.618 48.4978 118.781 48.4521 119.951 48.4521H121.265V51.7969C121.265 55.0359 121.25 55.1504 120.838 55.4393C120.435 55.7226 120.486 55.7369 121.748 55.7169C122.484 55.7054 122.944 55.6568 122.776 55.611C122.18 55.4508 122.029 54.6296 122.029 51.5108V48.4521H123.376C124.398 48.4521 124.753 48.5207 124.836 48.7382C125.016 49.2103 125.291 49.0644 125.291 48.4978V47.9714H118.197V47.9742ZM166.13 47.9742L166.141 48.6438C166.153 49.2389 166.173 49.2675 166.327 48.8841C166.485 48.495 166.628 48.4521 167.85 48.4521H169.2V51.7025C169.2 54.8013 169.18 54.973 168.779 55.3449L168.362 55.7341H170.734L170.35 55.3506C169.998 54.9987 169.967 54.7126 169.967 51.7082V48.4492H171.315C172.336 48.4492 172.688 48.5179 172.774 48.7353C172.957 49.2132 173.257 49.0587 173.192 48.5207L173.129 48.0171L169.629 47.9914L166.13 47.9742ZM183.489 48.083C182.225 48.0715 182.176 48.0858 182.579 48.3691C182.992 48.6581 183.006 48.7754 183.006 51.9056C183.006 55.033 182.992 55.1532 182.579 55.4422C182.176 55.7255 182.225 55.7398 183.484 55.7398C184.743 55.7398 184.791 55.7255 184.388 55.4422C183.976 55.1532 183.961 55.0388 183.961 51.7941C183.961 48.4978 183.967 48.4406 184.394 48.2689C184.714 48.1373 184.485 48.0915 183.489 48.083ZM135.262 48.0887C134.324 48.0944 134.121 48.1373 134.447 48.2689C134.85 48.432 134.879 48.5636 134.89 50.2232C134.91 53.0673 134.859 54.9901 134.75 55.2677C134.696 55.4107 134.507 55.5652 134.332 55.611C134.158 55.6568 134.567 55.7055 135.242 55.7198C136.421 55.7398 136.458 55.7283 136.152 55.3907C135.915 55.1275 135.834 54.6697 135.834 53.5681V52.0974H140.435V53.4937C140.435 54.4465 140.341 55.0245 140.138 55.3134C139.84 55.7398 139.84 55.7398 140.933 55.7398C141.983 55.7398 142.015 55.7255 141.712 55.3907C141.443 55.0931 141.394 54.5438 141.394 51.7569C141.394 48.8326 141.431 48.4521 141.732 48.2775C141.983 48.1316 141.755 48.083 140.822 48.0915C140.135 48.0973 139.706 48.1516 139.863 48.2117C140.35 48.3948 140.433 48.6896 140.435 50.2289L140.438 51.7168H135.837V50.0973C135.837 48.7582 135.895 48.4435 136.172 48.2832C136.424 48.1287 136.198 48.083 135.262 48.0887ZM76.5455 48.8412C76.66 49.1445 76.929 49.857 77.1893 50.5437C77.4841 51.3248 77.6815 52.0373 77.6271 52.126C77.4926 52.3434 74.8631 52.3377 74.8631 52.1202C74.8631 52.0287 75.2007 51.1445 75.6128 50.1545C75.9103 49.4421 76.1078 49.01 76.2422 48.7983C76.3968 48.5493 76.4712 48.6409 76.5455 48.8412Z" fill="#3DD7BF"/>
</g>
<mask id="mask1_1669_1731" style="mask-type:luminance" maskUnits="userSpaceOnUse" x="71" y="-73" width="145" height="130">
<path d="M215.911 -72.0488H71.7014V56.4234H215.911V-72.0488Z" fill="white"/>
</mask>
<g mask="url(#mask1_1669_1731)">
<path d="M76.434 46.7066C76.2308 47.1329 75.607 48.5864 74.8917 50.3175C72.9289 55.0673 72.7686 55.3877 72.1821 55.6824C71.75 55.8999 71.8359 55.9228 73.0261 55.9257C74.3252 55.9285 74.3452 55.9228 74.0104 55.5537C73.6871 55.196 73.6928 55.1302 74.1335 53.9714L74.5941 52.7639H78.0077L78.4683 53.9714C78.9118 55.1302 78.9176 55.196 78.5914 55.5537C78.2595 55.9228 78.2766 55.9285 79.6272 55.9285H80.7402C80.9291 55.9113 81.0664 55.9886 80.8833 55.8169L80.4398 55.402C80.0363 55.0215 79.4126 53.7196 78.2137 50.7524C77.4898 48.9613 76.8546 47.4104 76.6085 46.8267C76.5284 46.6436 76.5255 46.512 76.434 46.7066ZM107.144 47.8768C105.831 47.9169 104.964 48.6236 104.973 49.7567C104.978 50.6208 105.247 50.9613 107.03 52.3605C108.254 53.3219 108.418 53.5279 108.418 54.0858C108.418 54.8527 107.943 55.3334 107.053 55.4678C106.177 55.5995 105.159 54.9728 105.159 54.3033C105.159 54.0372 105.073 53.8197 104.967 53.8197C104.689 53.8197 104.729 55.2704 105.015 55.5022C105.147 55.6109 105.427 55.7397 105.636 55.7912C106.995 55.9571 108.921 55.9686 109.264 54.5694C109.505 52.9957 108.509 52.3147 107.41 51.4305C105.937 50.246 105.734 50.0085 105.734 49.4706C105.731 48.7381 106.303 48.2574 107.164 48.266C107.785 48.2717 108.415 48.6436 108.415 49.0013C108.415 49.1215 108.501 49.2188 108.606 49.2188C108.712 49.2188 108.798 48.9641 108.798 48.6522C108.798 48.1544 108.715 48.0714 108.114 47.9569C107.774 47.894 107.448 47.8682 107.144 47.8768ZM198.222 47.8768C195.959 47.8768 194.508 49.1787 194.351 51.3504C194.193 53.5136 195.046 55.0444 196.737 55.6481C199.144 56.5065 201.799 55.4078 202.085 53.4363L202.211 52.5722L201.702 53.5708C201.015 54.9213 200.156 55.4449 198.631 55.4449C196.511 55.4449 195.275 54.1488 195.275 51.9256C195.275 49.1129 197.201 47.6679 199.879 48.4691C200.402 48.6265 200.74 48.9098 201.126 49.5221C201.418 49.9856 201.69 50.3633 201.727 50.3633C201.885 50.3633 201.538 48.718 201.338 48.5206C201.012 48.2001 199.458 47.8768 198.222 47.8768ZM213.647 47.8797C212.114 47.8768 211.144 49.0643 211.604 50.3833C211.71 50.6866 212.423 51.4077 213.296 52.0944C214.125 52.7467 214.852 53.4077 214.912 53.5651C215.318 54.6266 214.657 55.4507 213.393 55.4507C212.494 55.4507 211.762 54.97 211.762 54.3777C211.762 54.1888 211.676 53.9828 211.57 53.917C211.453 53.8455 211.378 54.1288 211.378 54.6438C211.378 55.4278 211.424 55.505 212.002 55.6996C212.346 55.8169 213.081 55.8856 213.636 55.8541C215.001 55.7797 215.788 55.073 215.788 53.9227C215.788 52.9127 215.516 52.5465 213.859 51.319C213.11 50.7639 212.417 50.1001 212.32 49.8454C212.117 49.3103 212.351 48.7495 212.904 48.4548C213.67 48.0428 215.021 48.3518 215.021 48.9355C215.021 49.09 215.107 49.2159 215.213 49.2159C215.318 49.2159 215.404 48.967 215.404 48.6637C215.407 48.0313 215.078 47.8854 213.647 47.8797ZM156.67 47.894C156.587 47.8969 156.476 47.9197 156.327 47.9484C155.998 48.0142 154.811 48.0742 153.692 48.08C152.275 48.0886 151.786 48.1458 152.087 48.266C152.51 48.4376 152.519 48.4949 152.519 51.7911C152.519 55.0358 152.504 55.1531 152.092 55.4392C151.698 55.7168 151.852 55.7368 154.195 55.7368C156.61 55.7368 156.739 55.7168 156.999 55.3047C157.148 55.0673 157.334 54.6581 157.412 54.3949C157.537 53.9657 157.48 53.9886 156.848 54.6352C156.167 55.3276 156.098 55.3534 154.811 55.3534H153.477V52.0944H154.633C155.483 52.0944 155.818 52.1716 155.901 52.3805C156.07 52.8211 156.353 52.5207 156.353 51.9027C156.353 51.2846 156.07 50.9842 155.901 51.4248C155.818 51.6366 155.483 51.711 154.633 51.711H153.477V48.4491H154.894C156.144 48.4491 156.344 48.5006 156.61 48.8811C156.908 49.3046 156.911 49.3017 156.922 48.5693C156.925 48.0256 156.922 47.8825 156.67 47.894ZM94.7405 47.894C94.6576 47.8997 94.546 47.9197 94.3972 47.9484C94.0681 48.0142 92.9265 48.0685 91.8621 48.0685C90.028 48.0685 89.9479 48.0857 90.3656 48.3775C90.8005 48.6837 90.8062 48.7295 90.7433 51.917C90.6861 54.8784 90.6489 55.1731 90.2969 55.4364C89.9479 55.6996 90.1481 55.7254 92.4601 55.7311C95.2727 55.7368 95.0352 55.8427 95.473 54.3949L95.6189 53.9142L95.2184 54.4149C94.6633 55.1102 93.8907 55.382 92.6775 55.3133L91.6417 55.2561V52.1888L92.8406 52.1316C93.8192 52.0858 94.0395 52.1287 94.0395 52.3719C94.0395 52.535 94.1254 52.6695 94.2312 52.6695C94.3371 52.6695 94.4229 52.3233 94.4229 51.9027C94.4229 51.4792 94.3371 51.1358 94.2312 51.1358C94.1254 51.1358 94.0395 51.2646 94.0395 51.422C94.0395 51.648 93.7734 51.7081 92.7948 51.7081H91.5502V48.4491H92.978C94.2341 48.4491 94.4401 48.5006 94.7033 48.8754C94.9952 49.2932 95.0009 49.2874 95.0009 48.5635C94.9952 48.0256 94.9895 47.8825 94.7405 47.894ZM118.197 47.9741L118.212 48.6436C118.223 49.2674 118.24 49.2846 118.432 48.884C118.618 48.4977 118.781 48.4519 119.951 48.4519H121.265V51.7968C121.265 55.0358 121.25 55.1502 120.838 55.4392C120.435 55.7225 120.486 55.7368 121.748 55.7168C122.484 55.7053 122.944 55.6567 122.776 55.6109C122.18 55.4507 122.029 54.6295 122.029 51.5107V48.4519H123.376C124.398 48.4519 124.753 48.5206 124.836 48.7381C125.016 49.2102 125.291 49.0643 125.291 48.4977V47.9712H118.197V47.9741ZM166.13 47.9741L166.141 48.6436C166.153 49.2388 166.173 49.2674 166.327 48.884C166.485 48.4949 166.628 48.4519 167.85 48.4519H169.2V51.7024C169.2 54.8012 169.18 54.9728 168.779 55.3448L168.362 55.7339H170.734L170.35 55.3505C169.998 54.9986 169.967 54.7125 169.967 51.7081V48.4491H171.315C172.336 48.4491 172.688 48.5178 172.774 48.7352C172.957 49.213 173.257 49.0585 173.192 48.5206L173.129 48.017L169.629 47.9913L166.13 47.9741ZM183.489 48.0828C182.225 48.0714 182.176 48.0857 182.579 48.369C182.992 48.658 183.006 48.7753 183.006 51.9055C183.006 55.0329 182.992 55.1531 182.579 55.4421C182.176 55.7254 182.225 55.7397 183.484 55.7397C184.743 55.7397 184.791 55.7225 184.388 55.4421C183.976 55.1531 183.961 55.0386 183.961 51.7939C183.961 48.4977 183.967 48.4405 184.394 48.2688C184.714 48.1372 184.485 48.0914 183.489 48.0828ZM135.262 48.0886C134.324 48.0943 134.121 48.1372 134.447 48.266C134.85 48.429 134.879 48.5607 134.89 50.2202C134.91 53.0644 134.859 54.9871 134.75 55.2647C134.696 55.4078 134.507 55.5623 134.332 55.608C134.158 55.6538 134.567 55.7025 135.242 55.7168C136.421 55.7368 136.458 55.7254 136.152 55.3877C135.915 55.1245 135.834 54.6667 135.834 53.5651V52.0944H140.435V53.4907C140.435 54.4435 140.341 55.0215 140.138 55.3105C139.84 55.7368 139.84 55.7368 140.933 55.7368C141.983 55.7368 142.015 55.7225 141.712 55.3877C141.443 55.0902 141.394 54.5408 141.394 51.7539C141.394 48.8296 141.431 48.4491 141.732 48.2745C141.983 48.1286 141.754 48.08 140.822 48.0886C140.135 48.0943 139.706 48.1486 139.863 48.2087C140.35 48.3919 140.433 48.6866 140.435 50.2259L140.438 51.7138H135.837V50.0943C135.837 48.7552 135.895 48.4405 136.172 48.2803C136.424 48.1286 136.198 48.0828 135.262 48.0886ZM76.5455 48.8411C76.66 49.1444 76.929 49.8568 77.1893 50.5407C77.4841 51.3218 77.6815 52.0343 77.6271 52.123C77.4926 52.3404 74.8631 52.3347 74.8631 52.1173C74.8631 52.0257 75.2007 51.1416 75.6128 50.1515C75.9103 49.4391 76.1078 49.007 76.2422 48.7953C76.3968 48.5521 76.4712 48.6408 76.5455 48.8411Z" stroke="#31D4BB" stroke-width="0.119574"/>
</g>
<path d="M48.7685 16.1491C48.7497 16.1324 48.733 16.1156 48.7163 16.101L48.6557 16.0404C48.2317 15.6248 48.2192 15.7021 47.5821 15.6436C46.9409 15.558 46.5419 15.6415 46.001 16.1887C45.9947 16.1971 45.9864 16.2034 45.978 16.2117C45.978 16.2117 45.978 16.2117 45.9759 16.2117C45.6438 16.5543 45.2574 17.0681 44.7289 17.8221C43.7431 19.232 43.4339 19.7751 43.4423 20.3348C43.4277 20.5061 43.4402 20.6753 43.4715 20.857C43.5029 21.0325 43.6721 21.281 44.2485 21.8972C44.6078 22.2836 45.1759 22.858 46.0198 23.7039C46.1033 23.7875 46.1722 23.8564 46.26 23.9462C46.2788 23.965 46.2913 23.9754 46.308 23.9942C46.3268 24.013 46.3373 24.0256 46.3561 24.0423C46.4438 24.1321 46.5127 24.1989 46.5963 24.2825C47.4422 25.1263 48.0166 25.6945 48.4051 26.0537C49.0212 26.6302 49.2677 26.7994 49.4453 26.8307C49.6291 26.8641 49.7962 26.8746 49.9674 26.86C50.5272 26.8662 51.0724 26.5571 52.4801 25.5733C53.2342 25.0449 53.7501 24.6585 54.0905 24.3263C54.0905 24.3263 54.0905 24.3263 54.0905 24.3243C54.0989 24.3159 54.1072 24.3075 54.1135 24.3013C54.6607 23.7603 54.7443 23.3614 54.6587 22.7201C54.6023 22.0831 54.6775 22.0705 54.2618 21.6465L54.2012 21.5881C54.1866 21.5693 54.172 21.5525 54.1553 21.5358L51.4316 18.8665L48.7685 16.1491Z" fill="#7EFEC1"/>
<path d="M30.4046 11.6398C30.3816 11.6398 30.3566 11.6419 30.3336 11.644H30.25C29.6548 11.6502 29.7007 11.7129 29.2099 12.1223C28.696 12.515 28.4725 12.8575 28.4788 13.6261C28.4788 13.6366 28.4788 13.6491 28.4788 13.6596C28.4851 14.1358 28.5749 14.7728 28.7357 15.6814C29.0344 17.3754 29.1994 17.979 29.6025 18.3696C29.7132 18.5012 29.8406 18.6119 29.9931 18.7184C30.1393 18.8208 30.4338 18.8751 31.2777 18.9043C31.8061 18.9231 32.6124 18.9294 33.8092 18.9294C33.9262 18.9294 34.0243 18.9294 34.1496 18.9294C34.1747 18.9294 34.1935 18.9294 34.2186 18.9294C34.2436 18.9294 34.2624 18.9294 34.2875 18.9294C34.4128 18.9294 34.511 18.9294 34.628 18.9294C35.8227 18.9273 36.631 18.9231 37.1574 18.9022C38.0012 18.8751 38.2957 18.8208 38.4419 18.7163C38.5944 18.6098 38.7218 18.4991 38.8325 18.3675C39.2336 17.9769 39.4007 17.3733 39.6993 15.6814C39.8602 14.7749 39.95 14.1358 39.9583 13.6596C39.9583 13.6596 39.9583 13.6596 39.9583 13.6575C39.9583 13.647 39.9583 13.6345 39.9583 13.6241C39.9625 12.8554 39.739 12.515 39.2252 12.1202C38.7344 11.7108 38.7803 11.6461 38.185 11.6419H38.0994C38.0764 11.6398 38.0534 11.6377 38.0284 11.6377L34.2144 11.6753L30.4046 11.6398Z" fill="#57E3BE"/>
<path d="M14.2317 21.4377C14.215 21.4544 14.2004 21.4711 14.1837 21.4899L14.1231 21.5505C13.7075 21.9745 13.7827 21.987 13.7263 22.6241C13.6406 23.2653 13.7242 23.6643 14.2714 24.2053C14.2777 24.2136 14.2861 24.2199 14.2944 24.2282C14.637 24.5603 15.1508 24.9467 15.9048 25.4752C17.3147 26.4611 17.8577 26.7702 18.4175 26.7618C18.5888 26.7765 18.758 26.7639 18.9397 26.7326C19.1151 26.7013 19.3637 26.5321 19.9799 25.9556C20.3663 25.5963 20.9428 25.0282 21.7866 24.1844C21.8701 24.1008 21.9391 24.0319 22.0268 23.9442C22.0456 23.9254 22.0581 23.9128 22.0748 23.894C22.0916 23.8752 22.1041 23.8648 22.1229 23.846C22.2127 23.7562 22.2795 23.6873 22.3652 23.6037C23.209 22.7578 23.7771 22.1834 24.1364 21.797C24.7129 21.1808 24.8821 20.9343 24.9134 20.7568C24.9468 20.573 24.9573 20.4059 24.9426 20.2346C24.9489 19.6749 24.6398 19.1297 23.656 17.7219C23.1275 16.9679 22.7411 16.452 22.409 16.1094C22.409 16.1094 22.409 16.1094 22.4069 16.1094C22.3986 16.1011 22.3902 16.0927 22.384 16.0865C21.843 15.5392 21.4441 15.4557 20.8028 15.5413C20.1658 15.5977 20.1532 15.5225 19.7271 15.9382L19.6666 15.9987C19.6478 16.0133 19.6311 16.0301 19.6143 16.0468L16.945 18.7684L14.2317 21.4377Z" fill="#B2F0D9"/>
<path d="M9.72221 39.7997C9.72221 39.8227 9.7243 39.8478 9.72639 39.8707V39.9564C9.73266 40.5496 9.79532 40.5057 10.2047 40.9966C10.5974 41.5104 10.9399 41.7339 11.7086 41.7297C11.719 41.7297 11.7316 41.7297 11.742 41.7297C12.2182 41.7234 12.8553 41.6315 13.7639 41.4728C15.4578 41.1741 16.0614 41.0091 16.4499 40.606C16.5836 40.4953 16.6922 40.3679 16.7988 40.2154C16.9011 40.0692 16.9554 39.7747 16.9846 38.9287C17.0034 38.4003 17.0097 37.5941 17.0097 36.3993C17.0097 36.2803 17.0097 36.1842 17.0097 36.0589C17.0097 36.0317 17.0097 36.015 17.0097 35.9899C17.0097 35.9649 17.0097 35.9461 17.0097 35.921C17.0097 35.7957 17.0097 35.6975 17.0097 35.5805C17.0076 34.3858 17.0034 33.5775 16.9846 33.0511C16.9575 32.2073 16.9011 31.9128 16.7988 31.7666C16.6922 31.6141 16.5815 31.4867 16.4499 31.376C16.0593 30.9749 15.4557 30.8079 13.7639 30.5092C12.8553 30.3483 12.2182 30.2585 11.742 30.2523C11.742 30.2523 11.742 30.2523 11.7399 30.2523C11.7274 30.2523 11.7169 30.2523 11.7065 30.2523C10.9378 30.2481 10.5974 30.4695 10.2047 30.9833C9.79323 31.4741 9.73057 31.4282 9.72639 32.0235V32.1091C9.7243 32.1321 9.7243 32.1551 9.72221 32.1801L9.75981 35.992L9.72221 39.7997Z" fill="#72E9BF"/>
<path d="M19.5203 55.9725C19.537 55.9892 19.5537 56.0038 19.5725 56.0184L19.6331 56.079C20.0592 56.4968 20.0697 56.4195 20.7067 56.4759C21.3479 56.5615 21.7469 56.478 22.2879 55.9307C22.2962 55.9224 22.3025 55.9161 22.3108 55.9077C22.6429 55.5673 23.0294 55.0514 23.5578 54.2953C24.5437 52.8875 24.8528 52.3423 24.8444 51.7825C24.8591 51.6113 24.8465 51.4421 24.8152 51.2604C24.7839 51.0849 24.6147 50.8364 24.0382 50.2202C23.6789 49.8317 23.1108 49.2573 22.267 48.4114C22.1834 48.3278 22.1145 48.2589 22.0268 48.1712C22.008 48.1524 21.9954 48.1419 21.9787 48.1231C21.9599 48.1043 21.9495 48.0918 21.9307 48.0751C21.843 47.9853 21.774 47.9184 21.6905 47.8349C20.8446 46.9911 20.2702 46.4229 19.8838 46.0637C19.2676 45.4872 19.0211 45.318 18.8436 45.2867C18.6598 45.2532 18.4927 45.2428 18.3214 45.2574C17.7616 45.2491 17.2165 45.5582 15.8087 46.5441C15.0526 47.0725 14.5388 47.4589 14.1983 47.791C14.1983 47.791 14.1983 47.791 14.1983 47.7931C14.1899 47.8015 14.1816 47.8098 14.1753 47.8161C13.6281 48.3571 13.5445 48.756 13.6302 49.3972C13.6866 50.0343 13.6114 50.0468 14.027 50.4708L14.0876 50.5314C14.1022 50.5502 14.1189 50.5669 14.1356 50.5836L16.8572 53.253L19.5203 55.9725Z" fill="#7EFEC1"/>
<path d="M37.8843 60.4818C37.9073 60.4818 37.9323 60.4797 37.9553 60.4777H38.0409C38.6341 60.4714 38.5903 60.4087 39.0811 59.9993C39.5949 59.6067 39.8184 59.2641 39.8142 58.4955C39.8142 58.485 39.8142 58.4725 39.8142 58.4621C39.808 57.9858 39.7182 57.3488 39.5573 56.4402C39.2586 54.7462 39.0936 54.1426 38.6926 53.7541C38.5819 53.6204 38.4545 53.5118 38.302 53.4053C38.1558 53.3029 37.8613 53.2486 37.0175 53.2194C36.489 53.2006 35.6828 53.1943 34.4859 53.1943C34.369 53.1943 34.2708 53.1943 34.1455 53.1943C34.1204 53.1943 34.1016 53.1943 34.0766 53.1943C34.0515 53.1943 34.0348 53.1943 34.0076 53.1943C33.8823 53.1943 33.7841 53.1943 33.6672 53.1943C32.4724 53.1964 31.6641 53.2006 31.1378 53.2194C30.2939 53.2466 29.9994 53.3009 29.8532 53.4053C29.7007 53.5118 29.5733 53.6225 29.4626 53.7541C29.0616 54.1447 28.8945 54.7483 28.5958 56.4402C28.435 57.3488 28.3451 57.9858 28.3389 58.4621C28.3389 58.4621 28.3389 58.4621 28.341 58.4621C28.341 58.4746 28.341 58.485 28.341 58.4955C28.3368 59.2641 28.5582 59.6067 29.072 59.9993C29.5629 60.4087 29.5169 60.4735 30.1122 60.4777H30.1978C30.2208 60.4797 30.2438 60.4797 30.2688 60.4818L34.0807 60.4442L37.8843 60.4818Z" fill="#57E3BE"/>
<path d="M54.0571 50.6838C54.0738 50.6671 54.0884 50.6483 54.103 50.6316L54.1636 50.5731C54.5813 50.147 54.5041 50.1366 54.5605 49.4995C54.6461 48.8583 54.5625 48.4593 54.0153 47.9184C54.0069 47.91 54.0007 47.9037 53.9923 47.8954C53.6498 47.5633 53.136 47.1769 52.3819 46.6484C50.9741 45.6626 50.429 45.3534 49.8692 45.3618C49.6979 45.3472 49.5308 45.3597 49.347 45.391C49.1716 45.4224 48.923 45.5915 48.3069 46.168C47.9205 46.5273 47.3461 47.0954 46.498 47.9393C46.4145 48.0228 46.3456 48.0917 46.2578 48.1795C46.239 48.1983 46.2286 48.2108 46.2098 48.2275C46.191 48.2463 46.1785 48.2588 46.1618 48.2755C46.072 48.3654 46.0051 48.4322 45.9216 48.5157C45.0777 49.3617 44.5096 49.9361 44.1503 50.3225C43.5739 50.9386 43.4047 51.1872 43.3733 51.3626C43.3399 51.5465 43.3295 51.7135 43.3441 51.8848C43.3357 52.4446 43.6449 52.9897 44.6307 54.3975C45.1592 55.1536 45.5456 55.6675 45.8777 56.01C45.8777 56.01 45.8777 56.01 45.8798 56.01C45.8881 56.0184 45.8965 56.0246 45.9028 56.033C46.4437 56.5802 46.8427 56.6638 47.4839 56.5781C48.121 56.5218 48.1335 56.5969 48.5575 56.1813L48.6181 56.1207C48.6369 56.1061 48.6536 56.0915 48.6703 56.0748L51.3397 53.3511L54.0571 50.6838Z" fill="#B2F0D9"/>
</g>
<defs>
<clipPath id="clip0_1669_1731">
<rect width="225" height="71.3542" fill="white"/>
</clipPath>
</defs>
</svg>
